<svg xmlns="http://www.w3.org/2000/svg" width="22" height="22" viewBox="0 0 22 22" fill="none">
<path fill-rule="evenodd" clip-rule="evenodd" d="M1.92499 11.0003C1.92499 5.98831 5.98799 1.92529 11 1.92529C16.0119 1.92529 20.0749 5.98831 20.0749 11.0003C20.0749 16.0123 16.0119 20.0753 11 20.0753C5.98799 20.0753 1.92499 16.0123 1.92499 11.0003ZM8.37499 7.20862C8.05281 6.88644 7.53045 6.88644 7.20827 7.20862C6.88609 7.5308 6.88609 8.05316 7.20827 8.37535L9.83323 11.0003L7.20827 13.6253C6.88609 13.9475 6.88609 14.4698 7.20827 14.792C7.53045 15.1142 8.05281 15.1142 8.37499 14.792L11 12.167L13.6249 14.792C13.9471 15.1142 14.4695 15.1142 14.7916 14.792C15.1138 14.4698 15.1138 13.9475 14.7916 13.6253L12.1667 11.0003L14.7916 8.37535C15.1138 8.05316 15.1138 7.5308 14.7916 7.20862C14.4695 6.88644 13.9471 6.88644 13.6249 7.20862L11 9.83359L8.37499 7.20862Z" fill="#D9D9D9"/>
</svg>