<svg width="16" height="16" viewBox="0 0 16 16" fill="none" xmlns="http://www.w3.org/2000/svg">
<g clip-path="url(#clip0_16543_28663)">
<path d="M8.0001 0.562988C8.9437 0.562988 8.9257 0.908588 9.5613 0.942188C10.1969 0.976188 10.5293 0.776188 10.9585 0.839388C11.2569 0.883388 11.4813 1.01659 11.6365 1.14739C11.8061 1.29059 11.8341 1.53979 11.6989 1.71579L10.2205 3.63659C10.0889 3.79299 10.1049 4.02459 10.2593 4.15819C12.5601 6.15139 15.4001 8.54859 15.4001 10.701C15.4001 14.3178 12.4313 15.437 8.0001 15.437C3.5689 15.437 0.600098 14.3178 0.600098 10.701C0.600098 8.54899 3.4401 6.15139 5.7409 4.15819C5.8953 4.02459 5.9113 3.79259 5.7797 3.63659L4.3013 1.71579C4.1661 1.53979 4.1941 1.29059 4.3637 1.14739C4.5189 1.01659 4.7433 0.883388 5.0417 0.839388C5.4709 0.776188 5.8037 0.976188 6.4389 0.942188C7.0745 0.908188 7.0565 0.562988 8.0001 0.562988Z" fill="#FFC522"/>
<path d="M8.03337 4.55374C7.25697 4.55374 6.47897 4.48094 5.71977 4.33614C5.47777 4.28974 5.31937 4.05614 5.36537 3.81414C5.41177 3.57214 5.64577 3.41254 5.88737 3.45934C7.29497 3.72774 8.77457 3.72894 10.1662 3.45934C10.4078 3.41094 10.6422 3.57054 10.689 3.81254C10.7358 4.05454 10.5774 4.28854 10.3354 4.33534C9.58457 4.48054 8.81017 4.55334 8.03337 4.55334V4.55374Z" fill="#99452E"/>
<path d="M8.09595 12.7697C7.06875 12.7697 6.28675 12.1617 5.95955 11.7445C5.76875 11.5009 5.81155 11.1489 6.05515 10.9581C6.29755 10.7685 6.64715 10.8097 6.83875 11.0505C6.91635 11.1461 7.61875 11.9629 8.71995 11.5229C8.98755 11.4161 9.10955 11.2225 9.09155 11.0861C9.06435 10.8777 8.71715 10.6285 8.00355 10.5429C6.24355 10.3317 5.97835 9.33407 5.93875 9.03287C5.84995 8.35287 6.27875 7.70087 7.00595 7.41047C8.47715 6.82407 9.55075 7.61207 9.94395 7.97807C10.1704 8.18847 10.1827 8.54327 9.97195 8.76967C9.76075 8.99567 9.40715 9.00847 9.18035 8.79767C8.82075 8.46247 8.22315 8.13087 7.42075 8.45127C7.15315 8.55807 7.03115 8.75167 7.04915 8.88807C7.07635 9.09647 7.42315 9.34567 8.13675 9.43127C9.89675 9.64247 10.1619 10.6401 10.2015 10.9409C10.2907 11.6209 9.86155 12.2729 9.13475 12.5633C8.76835 12.7093 8.41955 12.7701 8.09555 12.7701L8.09595 12.7697Z" fill="#FFF3CC"/>
<path d="M8.07074 8.32141C7.76154 8.32141 7.51074 8.07101 7.51074 7.76181V6.96341C7.51074 6.65421 7.76154 6.40381 8.07074 6.40381C8.37994 6.40381 8.63074 6.65421 8.63074 6.96341V7.76181C8.63074 8.07101 8.37994 8.32141 8.07074 8.32141Z" fill="#FFF3CC"/>
<path d="M8.07074 13.5704C7.76154 13.5704 7.51074 13.32 7.51074 13.0108V12.2124C7.51074 11.9032 7.76154 11.6528 8.07074 11.6528C8.37994 11.6528 8.63074 11.9032 8.63074 12.2124V13.0108C8.63074 13.32 8.37994 13.5704 8.07074 13.5704Z" fill="#FFF3CC"/>
</g>
<defs>
<clipPath id="clip0_16543_28663">
<rect width="16" height="16" fill="white"/>
</clipPath>
</defs>
</svg>
