<svg width="16" height="16" viewBox="0 0 16 16" fill="none" xmlns="http://www.w3.org/2000/svg">
<g clip-path="url(#clip0_16543_28674)">
<path d="M5.25265 7.76507C6.62917 7.76507 7.74505 6.64919 7.74505 5.27267C7.74505 3.89616 6.62917 2.78027 5.25265 2.78027C3.87614 2.78027 2.76025 3.89616 2.76025 5.27267C2.76025 6.64919 3.87614 7.76507 5.25265 7.76507Z" fill="#8BBDFF"/>
<path d="M5.2529 8.52734C1.9033 8.52734 0.600098 10.8113 0.600098 11.8737C0.600098 12.9361 3.3737 13.2189 5.2529 13.2189C7.1321 13.2189 9.9057 12.9361 9.9057 11.8737C9.9057 10.8113 8.6029 8.52734 5.2529 8.52734Z" fill="#8BBDFF"/>
<path d="M10.7473 7.76507C12.1238 7.76507 13.2397 6.64919 13.2397 5.27267C13.2397 3.89616 12.1238 2.78027 10.7473 2.78027C9.37077 2.78027 8.25488 3.89616 8.25488 5.27267C8.25488 6.64919 9.37077 7.76507 10.7473 7.76507Z" fill="#3180F3"/>
<path d="M10.7475 8.52734C7.39793 8.52734 6.09473 10.8113 6.09473 11.8737C6.09473 12.9361 8.86833 13.2189 10.7475 13.2189C12.6267 13.2189 15.4003 12.9361 15.4003 11.8737C15.4003 10.8113 14.0975 8.52734 10.7475 8.52734Z" fill="#3180F3"/>
</g>
<defs>
<clipPath id="clip0_16543_28674">
<rect width="16" height="16" fill="white"/>
</clipPath>
</defs>
</svg>
