<svg xmlns="http://www.w3.org/2000/svg" width="24" height="24" viewBox="0 0 24 24" fill="none">
<path d="M12.0004 14.9016C11.5033 14.9016 11.1004 14.4986 11.1004 14.0016V3.62157L9.00051 5.64902C8.64293 5.99428 8.07317 5.98428 7.72791 5.6267C7.38266 5.26911 7.39266 4.69935 7.75024 4.3541L11.3501 0.878334C11.514 0.707174 11.7447 0.600586 12.0004 0.600586C12.256 0.600586 12.4868 0.707185 12.6506 0.878359L16.2505 4.3541C16.6081 4.69935 16.6181 5.26911 16.2728 5.6267C15.9276 5.98428 15.3578 5.99428 15.0002 5.64902L12.9004 3.62157V14.0016C12.9004 14.4986 12.4974 14.9016 12.0004 14.9016Z" fill="#141415"/>
<path d="M7.10072 7.60033C7.59758 7.60033 8.00037 8.00312 8.00037 8.49998C8.00037 8.99684 7.59758 9.39962 7.10072 9.39962H6.55064C5.73608 9.39962 5.54224 9.41073 5.41072 9.45346C5.07584 9.56227 4.81328 9.82483 4.70448 10.1597C4.66174 10.2912 4.65064 10.4851 4.65064 11.2996V18.6996C4.65064 19.5142 4.66174 19.708 4.70448 19.8395C4.81328 20.1744 5.07584 20.437 5.41072 20.5458C5.54224 20.5885 5.73608 20.5996 6.55064 20.5996H17.4506C18.2652 20.5996 18.459 20.5885 18.5906 20.5458C18.9254 20.437 19.188 20.1744 19.2968 19.8395C19.3395 19.708 19.3506 19.5142 19.3506 18.6996V11.2996C19.3506 10.4851 19.3395 10.2912 19.2968 10.1597C19.188 9.82483 18.9254 9.56227 18.5906 9.45346C18.459 9.41073 18.2652 9.39962 17.4506 9.39962H16.9C16.4032 9.39962 16.0004 8.99684 16.0004 8.49998C16.0004 8.00312 16.4032 7.60033 16.9 7.60033H17.0855C17.6153 7.60032 18.0666 7.60031 18.437 7.63057C18.8261 7.66237 19.2047 7.732 19.5667 7.91642C20.1123 8.19445 20.556 8.63809 20.834 9.18376C21.0184 9.5457 21.0881 9.92429 21.1199 10.3135C21.1501 10.6839 21.1501 11.135 21.1501 11.6649V18.3357C21.1501 18.8656 21.1501 19.3168 21.1199 19.6872C21.0881 20.0764 21.0184 20.455 20.834 20.8169C20.556 21.3626 20.1123 21.8062 19.5667 22.0843C19.2047 22.2687 18.8261 22.3383 18.437 22.3701C18.0666 22.4004 17.6154 22.4004 17.0855 22.4003H6.91469C6.38483 22.4004 5.93365 22.4004 5.56322 22.3701C5.17406 22.3383 4.79546 22.2687 4.43353 22.0843C3.88786 21.8062 3.44421 21.3626 3.16618 20.8169C2.98177 20.455 2.91213 20.0764 2.88034 19.6872C2.85007 19.3168 2.85009 18.8657 2.8501 18.3358V11.6649C2.85009 11.1351 2.85007 10.6839 2.88034 10.3135C2.91213 9.92429 2.98177 9.5457 3.16618 9.18376C3.44421 8.63809 3.88786 8.19445 4.43353 7.91642C4.79546 7.732 5.17406 7.66237 5.56322 7.63057C5.93363 7.60031 6.38478 7.60032 6.91461 7.60033H7.10072Z" fill="#141415"/>
</svg>